<?xml version="1.0" encoding="UTF-8"?>
<!-- Created with Inkscape (http://www.inkscape.org/) -->
<svg width="169.38mm" height="41.515mm" version="1.1" viewBox="0 0 169.38 41.515" xmlns="http://www.w3.org/2000/svg" xmlns:cc="http://creativecommons.org/ns#" xmlns:dc="http://purl.org/dc/elements/1.1/" xmlns:rdf="http://www.w3.org/1999/02/22-rdf-syntax-ns#">
 <metadata>
  <rdf:RDF>
   <cc:Work rdf:about="">
    <dc:format>image/svg+xml</dc:format>
    <dc:type rdf:resource="http://purl.org/dc/dcmitype/StillImage"/>
    <dc:title/>
   </cc:Work>
  </rdf:RDF>
 </metadata>
 <g transform="translate(-6.0256 -127.32)">
  <g transform="translate(232.94 162.49)" fill="#5f8dd3" shape-rendering="auto">
   <path d="m-117.08-35.17c-1.0933-0.0575-2.0166 0.8662-1.9787 1.9529v6e-3c0.36323 8.2735 5.7673 11.71 7.4161 12.588-0.77315 2.5285-1.8887 3.7979-3.453 4.2716-1.7013 0.51521-4.0686 0.17953-6.8983-0.60359-5.6593-1.5662-13.057-4.8069-21.088-4.8069-8.5636 0-21.141 4.8631-30.283 14.254l1.1369 1.1074c8.8214-9.0611 21.197-13.773 29.147-13.773 7.5994 0 14.813 3.1308 20.664 4.7501 2.9254 0.80962 5.5381 1.271 7.7814 0.59169 2.2434-0.67934 3.9261-2.5967 4.7734-5.9412l0.17001-0.66611-0.63458-0.26199s-6.7518-2.6926-7.1448-11.572c-7e-3 -0.20453 0.11038-0.32307 0.30851-0.31264h6e-3l4e-3 2e-3c1.3537 0.0539 3.79 0.33223 6.1097 1.4314s4.519 2.9665 5.6033 6.3417l0.14676 0.45527 7.5039 1.3302c0.11678 0.0206 0.19682 0.0882 0.2341 0.18758l1.1565 3.0856 2e-3 6e-3c0.17148 0.43822 0.49822 0.8067 0.92811 1.0216h4e-3l4.9062 2.3926c0.18524 0.0922 0.22961 0.26962 0.12506 0.42168l-4e-3 8e-3c-0.42099 0.62678-1.212 1.4353-2.8339 1.8908-1.6219 0.45557-4.1066 0.53964-7.846-0.44906-0.59778-0.22838-1.0679-0.26532-0.96687 0.55448 0 0-0.95252 3.4022-2.9373 7.6466l1.4376 0.67179c1.7425-3.7263 2.5612-6.3861 2.8086-7.2166 3.4831 0.81748 6.1022 0.83631 7.9334 0.32194 1.972-0.55392 3.1168-1.6372 3.7166-2.527v-2e-3c0.6409-0.9345 0.27839-2.2493-0.73432-2.7461h-2e-3l-4.8963-2.3869c-0.0685-0.0342-0.1278-0.0965-0.1602-0.17931l-1.1503-3.0706c-0.23455-0.62547-0.78993-1.0799-1.4433-1.1953l-6.6257-1.172c-1.2865-3.5095-3.7343-5.645-6.2265-6.8259-2.6057-1.2347-5.2244-1.5223-6.7148-1.5823z" color="#000000" color-rendering="auto" dominant-baseline="auto" image-rendering="auto" solid-color="#000000" style="font-feature-settings:normal;font-variant-alternates:normal;font-variant-caps:normal;font-variant-ligatures:normal;font-variant-numeric:normal;font-variant-position:normal;isolation:auto;mix-blend-mode:normal;shape-padding:0;text-decoration-color:#000000;text-decoration-line:none;text-decoration-style:solid;text-indent:0;text-orientation:mixed;text-transform:none;white-space:normal"/>
   <g fill-rule="evenodd">
    <path d="m-193.64-19.115a0.79383 0.79383 0 0 0-0.77148 0.625l-2.3535 10.785-2.6953 4e-3a0.79395 0.79395 0 1 0 4e-3 1.5879l3.332-6e-3a0.79383 0.79383 0 0 0 0.77344-0.62499l1.3301-6.0977 1.3828 18.408a0.79383 0.79383 0 0 0 1.5781 0.0547l2.1094-14.604 1.8184 10.332a0.79383 0.79383 0 0 0 1.5684-0.0351l1.3008-9.8926 0.64648 1.8867a0.79383 0.79383 0 0 0 0.75195 0.53711l10.068-6e-3a0.79395 0.79395 0 1 0-2e-3 -1.5879l-9.5 6e-3 -1.5586-4.5508a0.79383 0.79383 0 0 0-1.5371 0.15429l-1.0703 8.123-1.7812-10.125a0.79383 0.79383 0 0 0-1.5684 0.0234l-1.7832 12.34-1.2461-16.604a0.79383 0.79383 0 0 0-0.79687-0.73438z" color="#000000" color-rendering="auto" dominant-baseline="auto" image-rendering="auto" solid-color="#000000" style="font-feature-settings:normal;font-variant-alternates:normal;font-variant-caps:normal;font-variant-ligatures:normal;font-variant-numeric:normal;font-variant-position:normal;isolation:auto;mix-blend-mode:normal;shape-padding:0;text-decoration-color:#000000;text-decoration-line:none;text-decoration-style:solid;text-indent:0;text-orientation:mixed;text-transform:none;white-space:normal"/>
    <path d="m-220.3-19.068a0.79383 0.79383 0 0 0-0.77148 0.62304l-2.3555 10.785-2.6934 6e-3a0.79395 0.79395 0 1 0 2e-3 1.5879l3.332-6e-3a0.79383 0.79383 0 0 0 0.77539-0.62501l1.3301-6.0977 1.3828 18.408a0.79383 0.79383 0 0 0 1.5762 0.0547l2.1113-14.611 1.8184 10.338a0.79383 0.79383 0 0 0 1.5684-0.0332l1.3008-9.8926 0.64649 1.8867a0.79383 0.79383 0 0 0 0.74999 0.53711l10.068-6e-3a0.79395 0.79395 0 1 0 0-1.5879l-9.502 6e-3 -1.5586-4.5508a0.79383 0.79383 0 0 0-1.5371 0.1543l-1.0684 8.1269-1.7832-10.129a0.79383 0.79383 0 0 0-1.5664 0.0234l-1.7832 12.35-1.248-16.613a0.79383 0.79383 0 0 0-0.79492-0.73437z" color="#000000" color-rendering="auto" dominant-baseline="auto" image-rendering="auto" solid-color="#000000" style="font-feature-settings:normal;font-variant-alternates:normal;font-variant-caps:normal;font-variant-ligatures:normal;font-variant-numeric:normal;font-variant-position:normal;isolation:auto;mix-blend-mode:normal;shape-padding:0;text-decoration-color:#000000;text-decoration-line:none;text-decoration-style:solid;text-indent:0;text-orientation:mixed;text-transform:none;white-space:normal"/>
    <path d="m-79.17-19.133a0.79383 0.79383 0 0 0-0.77149 0.625l-2.3555 10.783-22.008 6e-3a0.79395 0.79395 0 1 0 0 1.5879l22.646-6e-3a0.79383 0.79383 0 0 0 0.77539-0.625l1.332-6.0937 1.3809 18.404a0.79383 0.79383 0 0 0 1.5781 0.0547l2.1094-14.604 1.8184 10.332a0.79383 0.79383 0 0 0 1.5703-0.0352l1.3008-9.8867 0.64456 1.8828a0.79383 0.79383 0 0 0 0.75194 0.53516l10.068-6e-3a0.79395 0.79395 0 1 0-3e-3 -1.5879l-9.5 6e-3 -1.5586-4.5488a0.79383 0.79383 0 0 0-1.5371 0.15234l-1.0684 8.127-1.7832-10.129a0.79383 0.79383 0 0 0-1.5684 0.0234l-1.7832 12.342-1.2461-16.605a0.79383 0.79383 0 0 0-0.79486-0.73432z" color="#000000" color-rendering="auto" dominant-baseline="auto" image-rendering="auto" solid-color="#000000" style="font-feature-settings:normal;font-variant-alternates:normal;font-variant-caps:normal;font-variant-ligatures:normal;font-variant-numeric:normal;font-variant-position:normal;isolation:auto;mix-blend-mode:normal;shape-padding:0;text-decoration-color:#000000;text-decoration-line:none;text-decoration-style:solid;text-indent:0;text-orientation:mixed;text-transform:none;white-space:normal"/>
   </g>
  </g>
 </g>
</svg>
